<mxfile host="app.diagrams.net" agent="Mozilla/5.0 (X11; Linux x86_64) AppleWebKit/537.36 (KHTML, like Gecko) Chrome/136.0.0.0 Safari/537.36" version="27.1.1">
  <diagram name="QualityTestClassDiagram" id="j8pA8VjCWf1Qq0tOqvYh">
    <mxGraphModel dx="1188" dy="622" grid="0" gridSize="10" guides="1" tooltips="1" connect="1" arrows="1" fold="1" page="1" pageScale="1" pageWidth="827" pageHeight="1169" math="0" shadow="0">
      <root>
        <mxCell id="0" />
        <mxCell id="1" parent="0" />
        <mxCell id="2" value="QualityTestContract" style="swimlane;childLayout=stackLayout;horizontal=1;startSize=20;horizontalStack=0;resizeParent=1;resizeLast=0;collapsible=0;rounded=1;fillColor=#dae8fc;strokeColor=#6c8ebf;" parent="1" vertex="1">
          <mxGeometry x="70" y="60" width="210" height="270" as="geometry" />
        </mxCell>
        <mxCell id="3" value="qualityTestBatches: mapping&lt;string, QualityTestBatch&gt;" style="text;html=1;strokeColor=none;align=left;verticalAlign=top;" parent="2" vertex="1">
          <mxGeometry y="20" width="210" height="30" as="geometry" />
        </mxCell>
        <mxCell id="4" value="performBatchQualityTest()" style="text;html=1;strokeColor=none;align=left;verticalAlign=top;" parent="2" vertex="1">
          <mxGeometry y="50" width="210" height="30" as="geometry" />
        </mxCell>
        <mxCell id="5" value="queryQualityTestBatch()" style="text;html=1;strokeColor=none;align=left;verticalAlign=top;" parent="2" vertex="1">
          <mxGeometry y="80" width="210" height="30" as="geometry" />
        </mxCell>
        <mxCell id="6" value="QualityTestBatchCreated (evento)" style="text;html=1;strokeColor=none;align=left;verticalAlign=top;" parent="2" vertex="1">
          <mxGeometry y="110" width="210" height="30" as="geometry" />
        </mxCell>
        <mxCell id="7" value="QualityTestBatch" style="swimlane;childLayout=stackLayout;horizontal=1;startSize=20;horizontalStack=0;resizeParent=1;resizeLast=0;collapsible=0;rounded=1;fillColor=#fff2cc;strokeColor=#d6b656;" parent="1" vertex="1">
          <mxGeometry x="360" y="30" width="250" height="340" as="geometry" />
        </mxCell>
        <mxCell id="8" value="id: string" style="text;html=1;strokeColor=none;align=left;verticalAlign=top;" parent="7" vertex="1">
          <mxGeometry x="20" y="60" width="170" height="20" as="geometry" />
        </mxCell>
        <mxCell id="9" value="minLimit: int256" style="text;html=1;strokeColor=none;align=left;verticalAlign=top;" parent="7" vertex="1">
          <mxGeometry x="20" y="80" width="170" height="20" as="geometry" />
        </mxCell>
        <mxCell id="10" value="maxLimit: int256" style="text;html=1;strokeColor=none;align=left;verticalAlign=top;" parent="7" vertex="1">
          <mxGeometry x="20" y="100" width="170" height="20" as="geometry" />
        </mxCell>
        <mxCell id="11" value="values: int256[]" style="text;html=1;strokeColor=none;align=left;verticalAlign=top;" parent="7" vertex="1">
          <mxGeometry x="20" y="120" width="170" height="20" as="geometry" />
        </mxCell>
        <mxCell id="12" value="productionOrder: string" style="text;html=1;strokeColor=none;align=left;verticalAlign=top;" parent="7" vertex="1">
          <mxGeometry x="20" y="140" width="170" height="20" as="geometry" />
        </mxCell>
        <mxCell id="13" value="testDate: string" style="text;html=1;strokeColor=none;align=left;verticalAlign=top;" parent="7" vertex="1">
          <mxGeometry x="20" y="160" width="170" height="20" as="geometry" />
        </mxCell>
        <mxCell id="14" value="testDescription: string" style="text;html=1;strokeColor=none;align=left;verticalAlign=top;" parent="7" vertex="1">
          <mxGeometry x="20" y="180" width="170" height="20" as="geometry" />
        </mxCell>
        <mxCell id="15" value="sampleResults: SampleResult[]" style="text;html=1;strokeColor=none;align=left;verticalAlign=top;" parent="7" vertex="1">
          <mxGeometry x="20" y="200" width="190" height="20" as="geometry" />
        </mxCell>
        <mxCell id="16" value="finalResult: string" style="text;html=1;strokeColor=none;align=left;verticalAlign=top;" parent="7" vertex="1">
          <mxGeometry x="20" y="220" width="170" height="20" as="geometry" />
        </mxCell>
        <mxCell id="17" value="SampleResult" style="swimlane;childLayout=stackLayout;horizontal=1;startSize=20;horizontalStack=0;resizeParent=1;resizeLast=0;collapsible=0;rounded=1;fillColor=#d5e8d4;strokeColor=#82b366;" parent="1" vertex="1">
          <mxGeometry x="657" y="150" width="170" height="100" as="geometry" />
        </mxCell>
        <mxCell id="18" value="value: int256" style="text;html=1;strokeColor=none;align=left;verticalAlign=top;" parent="17" vertex="1">
          <mxGeometry y="20" width="170" height="20" as="geometry" />
        </mxCell>
        <mxCell id="19" value="result: string" style="text;html=1;strokeColor=none;align=left;verticalAlign=top;" parent="17" vertex="1">
          <mxGeometry y="40" width="170" height="20" as="geometry" />
        </mxCell>
        <mxCell id="20" style="endArrow=block;endFill=1;html=1;" parent="1" source="2" target="7" edge="1">
          <mxGeometry relative="1" as="geometry">
            <mxPoint x="280" y="100" as="targetPoint" />
          </mxGeometry>
        </mxCell>
        <mxCell id="21" style="endArrow=block;endFill=1;html=1;dashed=1;" parent="1" source="7" target="17" edge="1">
          <mxGeometry relative="1" as="geometry">
            <mxPoint x="600" y="170" as="targetPoint" />
          </mxGeometry>
        </mxCell>
      </root>
    </mxGraphModel>
  </diagram>
</mxfile>
